<mxfile host="app.diagrams.net" modified="2024-06-26T08:22:31.970Z" agent="Mozilla/5.0 (Windows NT 10.0; Win64; x64) AppleWebKit/537.36 (KHTML, like Gecko) Chrome/126.0.0.0 Safari/537.36 Edg/126.0.0.0" etag="_ruOPWyPYTajZ4yfJmuN" version="24.6.3" type="github">
  <diagram name="第 1 页" id="5ydqQqN76XR2NVBgiNf7">
    <mxGraphModel dx="1426" dy="793" grid="1" gridSize="10" guides="1" tooltips="1" connect="1" arrows="1" fold="1" page="1" pageScale="1" pageWidth="827" pageHeight="1169" math="0" shadow="0">
      <root>
        <mxCell id="0" />
        <mxCell id="1" parent="0" />
        <mxCell id="xpAjwktY0tXWo1Ylw2bc-3" value="" style="edgeStyle=orthogonalEdgeStyle;rounded=0;orthogonalLoop=1;jettySize=auto;html=1;" edge="1" parent="1" source="xpAjwktY0tXWo1Ylw2bc-1" target="xpAjwktY0tXWo1Ylw2bc-2">
          <mxGeometry relative="1" as="geometry" />
        </mxCell>
        <mxCell id="xpAjwktY0tXWo1Ylw2bc-4" value="&lt;font style=&quot;font-size: 11px;&quot;&gt;通过mq队列：fareInfo_history 发送&lt;/font&gt;" style="edgeLabel;html=1;align=center;verticalAlign=middle;resizable=0;points=[];" vertex="1" connectable="0" parent="xpAjwktY0tXWo1Ylw2bc-3">
          <mxGeometry x="-0.1556" relative="1" as="geometry">
            <mxPoint as="offset" />
          </mxGeometry>
        </mxCell>
        <mxCell id="xpAjwktY0tXWo1Ylw2bc-1" value="&#xa;&lt;span style=&quot;color: rgb(51, 51, 51); font-family: &amp;quot;Open Sans&amp;quot;, &amp;quot;Clear Sans&amp;quot;, &amp;quot;Helvetica Neue&amp;quot;, Helvetica, Arial, &amp;quot;Segoe UI Emoji&amp;quot;, sans-serif; font-size: 16px; font-style: normal; font-variant-ligatures: normal; font-variant-caps: normal; font-weight: 400; letter-spacing: normal; orphans: 4; text-align: start; text-indent: 0px; text-transform: none; white-space: pre-wrap; widows: 2; word-spacing: 0px; -webkit-text-stroke-width: 0px; background-color: rgb(255, 255, 255); text-decoration-thickness: initial; text-decoration-style: initial; text-decoration-color: initial; display: inline !important; float: none;&quot;&gt;idgotatools-service （爬虫数据收集）&lt;/span&gt;&#xa;&#xa;" style="rounded=1;whiteSpace=wrap;html=1;" vertex="1" parent="1">
          <mxGeometry x="290" y="100" width="170" height="80" as="geometry" />
        </mxCell>
        <mxCell id="xpAjwktY0tXWo1Ylw2bc-6" value="" style="edgeStyle=orthogonalEdgeStyle;rounded=0;orthogonalLoop=1;jettySize=auto;html=1;" edge="1" parent="1" source="xpAjwktY0tXWo1Ylw2bc-2" target="xpAjwktY0tXWo1Ylw2bc-5">
          <mxGeometry relative="1" as="geometry" />
        </mxCell>
        <mxCell id="xpAjwktY0tXWo1Ylw2bc-2" value="datacenter" style="whiteSpace=wrap;html=1;rounded=1;fillColor=#dae8fc;strokeColor=#6c8ebf;" vertex="1" parent="1">
          <mxGeometry x="315" y="270" width="120" height="60" as="geometry" />
        </mxCell>
        <mxCell id="xpAjwktY0tXWo1Ylw2bc-8" value="" style="edgeStyle=orthogonalEdgeStyle;rounded=0;orthogonalLoop=1;jettySize=auto;html=1;" edge="1" parent="1" source="xpAjwktY0tXWo1Ylw2bc-5" target="xpAjwktY0tXWo1Ylw2bc-7">
          <mxGeometry relative="1" as="geometry" />
        </mxCell>
        <mxCell id="xpAjwktY0tXWo1Ylw2bc-5" value="数据解压，每条航线一条数据拆分为每个航班一条数据" style="whiteSpace=wrap;html=1;rounded=1;" vertex="1" parent="1">
          <mxGeometry x="315" y="410" width="120" height="60" as="geometry" />
        </mxCell>
        <mxCell id="xpAjwktY0tXWo1Ylw2bc-7" value="数据整合，按起飞时间分组" style="whiteSpace=wrap;html=1;rounded=1;" vertex="1" parent="1">
          <mxGeometry x="315" y="550" width="120" height="60" as="geometry" />
        </mxCell>
        <mxCell id="xpAjwktY0tXWo1Ylw2bc-16" value="" style="edgeStyle=elbowEdgeStyle;elbow=vertical;html=1;rounded=1;curved=0;sourcePerimeterSpacing=0;targetPerimeterSpacing=0;startSize=6;endSize=6;exitX=0.5;exitY=1;exitDx=0;exitDy=0;" edge="1" parent="1" source="xpAjwktY0tXWo1Ylw2bc-7" target="xpAjwktY0tXWo1Ylw2bc-15">
          <mxGeometry relative="1" as="geometry">
            <mxPoint x="520" y="720" as="sourcePoint" />
          </mxGeometry>
        </mxCell>
        <mxCell id="xpAjwktY0tXWo1Ylw2bc-22" value="mongodb 30 天" style="edgeLabel;html=1;align=center;verticalAlign=middle;resizable=0;points=[];" vertex="1" connectable="0" parent="xpAjwktY0tXWo1Ylw2bc-16">
          <mxGeometry x="0.641" y="1" relative="1" as="geometry">
            <mxPoint x="-1" y="9" as="offset" />
          </mxGeometry>
        </mxCell>
        <mxCell id="xpAjwktY0tXWo1Ylw2bc-32" value="" style="edgeStyle=orthogonalEdgeStyle;rounded=0;orthogonalLoop=1;jettySize=auto;html=1;" edge="1" parent="1" source="xpAjwktY0tXWo1Ylw2bc-17" target="xpAjwktY0tXWo1Ylw2bc-26">
          <mxGeometry relative="1" as="geometry">
            <Array as="points">
              <mxPoint x="450" y="830" />
              <mxPoint x="450" y="830" />
            </Array>
          </mxGeometry>
        </mxCell>
        <mxCell id="xpAjwktY0tXWo1Ylw2bc-34" value="互备" style="edgeLabel;html=1;align=center;verticalAlign=middle;resizable=0;points=[];" vertex="1" connectable="0" parent="xpAjwktY0tXWo1Ylw2bc-32">
          <mxGeometry x="-0.0244" y="3" relative="1" as="geometry">
            <mxPoint as="offset" />
          </mxGeometry>
        </mxCell>
        <mxCell id="xpAjwktY0tXWo1Ylw2bc-17" value="过滤数据&lt;div&gt;价格、舱位变化记录&lt;/div&gt;&lt;div&gt;超过12小时未变动记录&lt;/div&gt;&lt;div&gt;适用于 价格趋势判断&lt;/div&gt;" style="whiteSpace=wrap;html=1;" vertex="1" parent="1">
          <mxGeometry x="311" y="780" width="128" height="70" as="geometry" />
        </mxCell>
        <mxCell id="xpAjwktY0tXWo1Ylw2bc-18" value="" style="edgeStyle=elbowEdgeStyle;elbow=vertical;html=1;rounded=1;curved=0;sourcePerimeterSpacing=0;targetPerimeterSpacing=0;startSize=6;endSize=6;exitX=0.5;exitY=1;exitDx=0;exitDy=0;" edge="1" parent="1" source="xpAjwktY0tXWo1Ylw2bc-7" target="xpAjwktY0tXWo1Ylw2bc-17">
          <mxGeometry relative="1" as="geometry">
            <mxPoint x="520" y="720" as="sourcePoint" />
          </mxGeometry>
        </mxCell>
        <mxCell id="xpAjwktY0tXWo1Ylw2bc-19" value="批量插入db" style="edgeLabel;html=1;align=center;verticalAlign=middle;resizable=0;points=[];" vertex="1" connectable="0" parent="xpAjwktY0tXWo1Ylw2bc-18">
          <mxGeometry x="-0.7128" y="-1" relative="1" as="geometry">
            <mxPoint as="offset" />
          </mxGeometry>
        </mxCell>
        <mxCell id="xpAjwktY0tXWo1Ylw2bc-23" value="mongodb 永久" style="edgeLabel;html=1;align=center;verticalAlign=middle;resizable=0;points=[];" vertex="1" connectable="0" parent="xpAjwktY0tXWo1Ylw2bc-18">
          <mxGeometry x="0.6615" y="1" relative="1" as="geometry">
            <mxPoint x="4" y="-21" as="offset" />
          </mxGeometry>
        </mxCell>
        <mxCell id="xpAjwktY0tXWo1Ylw2bc-15" value="设置过期时间&lt;div&gt;30天后清除数据&lt;/div&gt;&lt;div&gt;适用于 ppx 历史数据查询&lt;/div&gt;" style="whiteSpace=wrap;html=1;" vertex="1" parent="1">
          <mxGeometry x="140" y="780" width="150" height="70" as="geometry" />
        </mxCell>
        <mxCell id="xpAjwktY0tXWo1Ylw2bc-33" value="" style="edgeStyle=orthogonalEdgeStyle;rounded=0;orthogonalLoop=1;jettySize=auto;html=1;" edge="1" parent="1" source="xpAjwktY0tXWo1Ylw2bc-26" target="xpAjwktY0tXWo1Ylw2bc-17">
          <mxGeometry relative="1" as="geometry" />
        </mxCell>
        <mxCell id="xpAjwktY0tXWo1Ylw2bc-26" value="过滤数据&lt;div&gt;价格、舱位变化记录&lt;/div&gt;&lt;div&gt;超过12小时未变动记录&lt;/div&gt;&lt;div&gt;适用于 价格趋势判断&lt;br&gt;&lt;/div&gt;" style="whiteSpace=wrap;html=1;" vertex="1" parent="1">
          <mxGeometry x="480" y="780" width="130" height="70" as="geometry" />
        </mxCell>
        <mxCell id="xpAjwktY0tXWo1Ylw2bc-27" value="" style="edgeStyle=elbowEdgeStyle;elbow=vertical;html=1;rounded=1;curved=0;sourcePerimeterSpacing=0;targetPerimeterSpacing=0;startSize=6;endSize=6;exitX=0.5;exitY=1;exitDx=0;exitDy=0;" edge="1" parent="1" target="xpAjwktY0tXWo1Ylw2bc-26" source="xpAjwktY0tXWo1Ylw2bc-7">
          <mxGeometry relative="1" as="geometry">
            <mxPoint x="370" y="690" as="sourcePoint" />
          </mxGeometry>
        </mxCell>
        <mxCell id="xpAjwktY0tXWo1Ylw2bc-28" value="批量插入db" style="edgeLabel;html=1;align=center;verticalAlign=middle;resizable=0;points=[];" vertex="1" connectable="0" parent="xpAjwktY0tXWo1Ylw2bc-27">
          <mxGeometry x="-0.7128" y="-1" relative="1" as="geometry">
            <mxPoint as="offset" />
          </mxGeometry>
        </mxCell>
        <mxCell id="xpAjwktY0tXWo1Ylw2bc-29" value="es" style="edgeLabel;html=1;align=center;verticalAlign=middle;resizable=0;points=[];" vertex="1" connectable="0" parent="xpAjwktY0tXWo1Ylw2bc-27">
          <mxGeometry x="0.6615" y="1" relative="1" as="geometry">
            <mxPoint y="8" as="offset" />
          </mxGeometry>
        </mxCell>
      </root>
    </mxGraphModel>
  </diagram>
</mxfile>
